<svg xmlns="http://www.w3.org/2000/svg" viewBox="0 0 600 140"><svg><path fill="#f3f3f3" d="M195.645 65.32q0-3.8 1.91-6.93 1.9-3.12 5.12-4.98 3.22-1.86 7.11-1.86h29.47v8.4h-29.47q-2.33 0-4.01 1.65-1.68 1.64-1.68 3.96v3.92q0 2.13 1.68 3.65t4.01 1.52h18.13q3.93 0 7.13 1.86 3.2 1.86 5.11 5.01 1.9 3.14 1.9 6.94v6.21q0 3.8-1.9 6.94-1.91 3.15-5.11 5.01-3.2 1.86-7.13 1.86h-32.23v-8.45h32.23q2.37 0 4.03-1.58 1.66-1.58 1.66-3.82V88.5q0-2.24-1.66-3.84-1.66-1.6-4.03-1.6h-18.13q-3.89 0-7.11-1.83-3.22-1.82-5.12-4.9-1.91-3.08-1.91-6.81Z"/><rect width="46.41" height="56.93" x="-23.2" y="-28.46" fill="none" rx="0" ry="0" transform="translate(219.35 80.52)"/><path fill="#f3f3f3" d="M251.665 51.55h8.45V82.9h2.84l15.01-15.9h10.97l-18.93 20.1 20.62 21.38h-11.82l-16.61-17.14h-2.08v17.14h-8.45Z"/><rect width="38.96" height="56.93" x="-19.48" y="-28.46" fill="none" rx="0" ry="0" transform="translate(271.64 80.52)"/><path fill="#f3f3f3" d="M294.625 81.9q0-4.13 2.02-7.49 2.02-3.37 5.43-5.39 3.4-2.02 7.52-2.02h23.15v41.48h-8.45V75.45h-14.7q-2.68 0-4.6 1.9-1.92 1.9-1.92 4.63v11.45q0 2.72 1.92 4.66t4.6 1.94h9.89v8.45h-9.89q-4.12 0-7.52-2.02-3.41-2.02-5.43-5.43-2.02-3.4-2.02-7.52Z"/><rect width="38.12" height="41.48" x="-19.06" y="-20.74" fill="none" rx="0" ry="0" transform="translate(314.19 88.24)"/><path fill="#f3f3f3" d="M340.345 67h5.41V51.55h8.45V67h12.77v8.45h-12.77v21.26q0 1.36 1.06 2.34 1.06.98 2.54.98h9.17v8.45h-9.29q-3.28 0-5.98-1.58-2.71-1.58-4.33-4.24-1.62-2.67-1.62-5.91v-21.3h-5.41Z"/><rect width="26.63" height="56.93" x="-13.31" y="-28.46" fill="none" rx="0" ry="0" transform="translate(354.16 80.52)"/><path fill="#f3f3f3" d="M374.585 75.57q0-3.56 2.6-6.07 2.6-2.5 6.25-2.5h17.29q3.33 0 6.03 1.62t4.32 4.37q1.63 2.74 1.63 6.06v1.16q0 3.29-1.63 5.99-1.62 2.7-4.32 4.32-2.7 1.63-6.03 1.63h-12.89v-8.41h12.97q1.44 0 2.47-1.04 1.02-1.04 1.02-2.53v-1.12q0-1.52-1.02-2.56-1.03-1.04-2.47-1.04h-17.77v21.3q0 1.36.92 2.32.92.96 2.24.96h23.58v8.45h-23.58q-3.2 0-5.85-1.58-2.64-1.58-4.2-4.24-1.56-2.67-1.56-5.87Z"/><rect width="38.12" height="41.48" x="-19.06" y="-20.74" fill="none" rx="0" ry="0" transform="translate(394.14 88.24)"/><path fill="#f3f3f3" d="M421.505 51.55h8.45v48.48h14.7q2.72 0 4.62-1.92t1.9-4.6V82.06q0-2.73-1.9-4.67t-4.62-1.94h-9.89V67h9.89q4.12 0 7.52 2.02 3.41 2.02 5.43 5.43 2.02 3.4 2.02 7.53v11.61q0 4.08-2.02 7.46-2.02 3.39-5.43 5.41-3.4 2.02-7.52 2.02h-14.7q-3.48 0-5.96-2.48-2.49-2.48-2.49-5.97Z"/><rect width="38.12" height="56.93" x="-19.06" y="-28.46" fill="none" rx="0" ry="0" transform="translate(441.06 80.52)"/><path fill="#f3f3f3" d="M469.235 67h8.45v26.39q0 2.8 1.92 4.76t4.6 1.96h14.7V67h8.45v33.07q0 3.49-2.48 5.95-2.49 2.46-6.05 2.46h-14.62q-4.12 0-7.52-2.02-3.41-2.02-5.43-5.43-2.02-3.4-2.02-7.52Z"/><rect width="38.12" height="41.48" x="-19.06" y="-20.74" fill="none" rx="0" ry="0" transform="translate(488.8 88.24)"/><path fill="#f3f3f3" d="M516.005 55.71q0-2.16 1.52-3.68 1.52-1.53 3.68-1.53t3.68 1.53q1.53 1.52 1.53 3.68t-1.53 3.68q-1.52 1.53-3.68 1.53t-3.68-1.53q-1.52-1.52-1.52-3.68m.96 11.29h8.49v41.48h-8.49Z"/><rect width="10.41" height="57.98" x="-5.21" y="-28.99" fill="none" rx="0" ry="0" transform="translate(521.71 79.99)"/><path fill="#f3f3f3" d="M535.055 51.55h8.45v56.93h-8.45Z"/><rect width="8.45" height="56.93" x="-4.22" y="-28.46" fill="none" rx="0" ry="0" transform="translate(539.78 80.52)"/><path fill="#f3f3f3" d="M552.715 81.98q0-4.13 2.02-7.53 2.03-3.41 5.43-5.43 3.4-2.02 7.53-2.02h9.89v8.45h-9.89q-2.69 0-4.61 1.94-1.92 1.94-1.92 4.67v11.45q0 2.68 1.92 4.6 1.92 1.92 4.61 1.92h14.69V51.55h8.45v48.48q0 3.49-2.48 5.97-2.49 2.48-5.97 2.48h-14.69q-4.13 0-7.53-2.02-3.4-2.02-5.43-5.41-2.02-3.38-2.02-7.46Z"/><rect width="38.12" height="56.93" x="-19.06" y="-28.46" fill="none" rx="0" ry="0" transform="translate(572.27 80.52)"/><path fill="#FF7A20" d="M127.968 108.622a13.272 13.272 0 1 0 0 26.544 13.272 13.272 0 1 0 0-26.544m30.824-25.582-15.628 15.628H26.47L10.876 83.04l-4.712 4.678 17.552 17.586h122.202l17.586-17.586zM35.064 108.622a13.272 13.272 0 1 0 0 26.544 13.272 13.272 0 1 0 0-26.544m109.139-47.61c-.425-2.675-1.374-5.568-3.328-8.033-2.72-3.484-6.769-5.375-11.978-5.64h-.199l-.2.032c-.68.033-9.601.485-20.786-5.232l-7.463 7.455-4.691-4.691 6.264-6.261a58.762 58.762 0 0 1-3.062-2.237l-5.847 5.85-4.695-4.692 5.522-5.518a68.427 68.427 0 0 1-2.615-2.684l-5.551 5.551-4.692-4.692 5.943-5.942a77.425 77.425 0 0 1-2.243-3.053l-6.354 6.354-4.692-4.695 7.373-7.366a99.64 99.64 0 0 1-3.043-5.507L76.473 7.29l-2.82 1.161c-.3.133-28.436 11.514-43.002-1.825l-5.541-5.11V69.37h78.826z"/><path fill="#FF7A20" d="M32.609 89.012h72l39.684-7.93V68.84c.033-.25.08-.62.126-1.095l-39.803 8.262H25.11v5.507c0 2.024.763 3.883 2.19 5.31a7.454 7.454 0 0 0 5.309 2.19"/></svg></svg>

